# xmcd CD database file
#
# Track frame offsets:
#	150
#	16493
#	32882
#	47054
#	60602
#	74821
#	93985
#	107015
#	118697
#	132467
#	142592
#	156987
#	171357
#	184756
#	195785
#	210267
#	224894
#	237122
#	249470
#	262010
#
# Disc length: 3681 seconds
#
# Revision: 0
# Processed by: cddbd v1.4PL0 Copyright (c) Steve Scherf et al.
# Submitted via: CDex 1.50beta10
#
DISCID=280e5f14
DTITLE=Deanna Durbin - The Golden Voice Of
DYEAR=1900
DGENRE=Country
TTITLE0=Can't Help Singing
TTITLE1=More And More
TTITLE2=Spring In My Heart
TTITLE3=Californ-I-Ay
TTITLE4=Always
TTITLE5=One Fine Day 
TTITLE6=Les Filles De Cadiz
TTITLE7=Ave Marie
TTITLE8=Love Is All
TTITLE9=Home Sweet Home
TTITLE10=Beneath The Lights Of Home
TTITLE11=Any Moment Now
TTITLE12=My Own
TTITLE13=The Last Rose Of Summer
TTITLE14=Spring Will Be A Little Late This Year
TTITLE15=Someone To Care For Me
TTITLE16=It's Foolish But It's Fun
TTITLE17=Waltzing In The Clouds
TTITLE18=Annie Laurie
TTITLE19=Love's Old Sweet Song
EXTD=
EXTT0=
EXTT1=
EXTT2=
EXTT3=
EXTT4=
EXTT5=
EXTT6=
EXTT7=
EXTT8=
EXTT9=
EXTT10=
EXTT11=
EXTT12=
EXTT13=
EXTT14=
EXTT15=
EXTT16=
EXTT17=
EXTT18=
EXTT19=
PLAYORDER=
